<?xml version="1.0" encoding="UTF-8" standalone="no"?><!DOCTYPE svg PUBLIC "-//W3C//DTD SVG 1.1//EN" "http://www.w3.org/Graphics/SVG/1.1/DTD/svg11.dtd"><svg width="100%" height="100%" viewBox="0 0 2206 2206" version="1.1" xmlns="http://www.w3.org/2000/svg" xmlns:xlink="http://www.w3.org/1999/xlink" xml:space="preserve" xmlns:serif="http://www.serif.com/" style="fill-rule:evenodd;clip-rule:evenodd;stroke-linecap:round;stroke-linejoin:round;stroke-miterlimit:1.5;"><path d="M2187.24,329.738c-0,-171.639 -139.349,-310.988 -310.988,-310.988l-1546.52,-0c-171.639,-0 -310.988,139.349 -310.988,310.988l-0,1546.52c-0,171.639 139.349,310.988 310.988,310.988l1546.52,-0c171.639,-0 310.988,-139.349 310.988,-310.988l-0,-1546.52Z" style="fill:#fdfffe;stroke:#000;stroke-width:37.5px;"/><path d="M1297.99,985.536l-26.161,43.22c198.986,49.347 232.938,-24.315 232.938,-24.315c103.025,275.51 -130.944,399.14 -130.944,399.14c60.307,60.376 97.169,128.976 129.83,195.985c-146.86,-321.71 -394.166,-408.534 -782.294,-166.051c-0,0 -0.751,4.088 -0,-14.036c5.423,-130.887 107.647,-310.516 146.667,-316.482c-0,-0 -76.902,-325.614 -88.238,-427.837c-3.34,-30.111 14.402,-83.107 68.693,-87.774c22.559,-1.94 605.393,2.978 716.489,0.923c128.463,-2.377 159.768,-32.591 189.951,-59.614c53.19,-47.623 37.968,-208.406 -32.96,-258.212c-52.804,-37.079 -77.312,-48.376 -234.015,-51.221c-389.614,-7.073 -745.715,0.06 -791.066,3.244c-55.767,3.914 -280.668,21.918 -284.514,370.576c-3.535,320.57 2.278,961.034 3.809,1108.5c0.135,12.92 0.078,22.061 0.295,26.86c5.302,117.448 96.054,207.904 263.037,208.779c166.983,0.875 763.684,6.611 763.684,0c0,0 431.888,-87.701 439.297,-160.687c7.409,-72.986 65.564,-244.245 -6.858,-509.378c-72.423,-265.133 -219.368,-537.293 -260.361,-534.2c-40.992,3.094 -326.111,0.037 -343.44,3.13c-17.328,3.094 -50.117,45.534 -52.437,67.678c-2.32,22.143 -0,165.624 -0,165.624c-0,0 37.337,30.419 75.552,19.591" style="fill:#ed2701;stroke:#000;stroke-width:37.5px;"/><path d="M868.029,1627.62c-0,0 94.148,111.091 334.281,89.469" style="fill:none;stroke:#000;stroke-width:37.5px;"/></svg>